<svg width="66" height="65" viewBox="0 0 66 65" fill="none" xmlns="http://www.w3.org/2000/svg">
<g clip-path="url(#clip0_6_1944)">
<g clip-path="url(#clip1_6_1944)">
<mask id="mask0_6_1944" style="mask-type:luminance" maskUnits="userSpaceOnUse" x="0" y="0" width="66" height="65">
<path d="M0.830078 0H65.8301V65H0.830078V0Z" fill="white"/>
</mask>
<g mask="url(#mask0_6_1944)">
<path d="M19.9651 43.3L17.8151 50.274L16.2481 55.352L13.6631 63.728H8.31006L15.2761 41.306" stroke="#C7A386" stroke-width="1.5" stroke-miterlimit="10" stroke-linecap="round" stroke-linejoin="round"/>
<path d="M45.2632 27.93C45.6 27.93 45.923 28.0638 46.1612 28.302C46.3994 28.5401 46.5332 28.8632 46.5332 29.2C46.5332 29.5368 46.3994 29.8598 46.1612 30.098C45.923 30.3362 45.6 30.47 45.2632 30.47C44.9263 30.47 44.6033 30.3362 44.3651 30.098C44.127 29.8598 43.9932 29.5368 43.9932 29.2C43.9932 28.8632 44.127 28.5401 44.3651 28.302C44.6033 28.0638 44.9263 27.93 45.2632 27.93Z" fill="#C7A386"/>
<path d="M52.8811 19.043C52.8817 20.7484 52.7115 22.4496 52.3731 24.121C52.1995 24.9783 51.9809 25.8258 51.7181 26.66C50.4908 30.5612 48.3383 34.1076 45.4441 36.997C43.7437 38.6977 41.8112 40.1491 39.7041 41.308C38.2128 42.1289 36.6421 42.7963 35.0161 43.3C32.5786 44.0539 30.0415 44.4362 27.4901 44.434C24.9387 44.4362 22.4015 44.0539 19.9641 43.3C18.338 42.7963 16.7673 42.1289 15.2761 41.308C12.0446 39.5331 9.23781 37.0766 7.05036 34.1089C4.8629 31.1411 3.34713 27.733 2.60809 24.121C2.2697 22.4496 2.09952 20.7484 2.1001 19.043L47.8001 19.043" stroke="#C7A386" stroke-width="1.5" stroke-miterlimit="10" stroke-linecap="round" stroke-linejoin="round"/>
<path d="M42.0839 30.617C39.4844 33.3106 36.1912 35.2337 32.5679 36.174" stroke="#C7A386" stroke-width="1.5" stroke-miterlimit="10" stroke-linecap="round" stroke-linejoin="round"/>
<path d="M47.8032 19.043H60.7522C61.7516 19.0592 62.7046 19.4676 63.4056 20.1801C64.1066 20.8925 64.4995 21.852 64.4995 22.8515C64.4995 23.8511 64.1066 24.8105 63.4056 25.523C62.7046 26.2355 61.7516 26.6438 60.7522 26.66H51.7182" stroke="#C7A386" stroke-width="1.5" stroke-miterlimit="10" stroke-linecap="round" stroke-linejoin="round"/>
<path d="M39.7041 41.308L46.6701 63.73H41.3181L38.7331 55.351L37.1661 50.273L35.0161 43.3" stroke="#C7A386" stroke-width="1.5" stroke-miterlimit="10" stroke-linecap="round" stroke-linejoin="round"/>
<path d="M17.814 50.273H37.167" stroke="#C7A386" stroke-width="1.5" stroke-miterlimit="10" stroke-linecap="round" stroke-linejoin="round"/>
<path d="M38.7332 55.352H16.2012" stroke="#C7A386" stroke-width="1.5" stroke-miterlimit="10" stroke-linecap="round" stroke-linejoin="round"/>
<path d="M2.60693 24.121H52.3729" stroke="#C7A386" stroke-width="1.5" stroke-miterlimit="10" stroke-linecap="round" stroke-linejoin="round"/>
<path d="M18.667 2.539C19.0849 2.81774 19.4275 3.19531 19.6645 3.63822C19.9015 4.08113 20.0255 4.57568 20.0255 5.078C20.0255 5.58032 19.9015 6.07487 19.6645 6.51778C19.4275 6.96069 19.0849 7.33826 18.667 7.617C18.2491 7.89574 17.9065 8.27331 17.6695 8.71622C17.4326 9.15913 17.3086 9.65368 17.3086 10.156C17.3086 10.6583 17.4326 11.1529 17.6695 11.5958C17.9065 12.0387 18.2491 12.4163 18.667 12.695" stroke="#C7A386" stroke-width="1.5" stroke-miterlimit="10" stroke-linecap="round" stroke-linejoin="round"/>
<path d="M27.5542 1.33301C27.9715 1.60492 28.3142 1.97665 28.5515 2.4145C28.7888 2.85235 28.9131 3.3425 28.9131 3.84051C28.9131 4.33852 28.7888 4.82866 28.5515 5.26652C28.3142 5.70437 27.9715 6.0761 27.5542 6.34801C27.1363 6.62675 26.7937 7.00432 26.5568 7.44723C26.3198 7.89014 26.1958 8.38469 26.1958 8.88701C26.1958 9.38932 26.3198 9.88388 26.5568 10.3268C26.7937 10.7697 27.1363 11.1473 27.5542 11.426" stroke="#C7A386" stroke-width="1.5" stroke-miterlimit="10" stroke-linecap="round" stroke-linejoin="round"/>
<path d="M36.4409 2.539C36.8588 2.81774 37.2015 3.19531 37.4384 3.63822C37.6754 4.08113 37.7994 4.57568 37.7994 5.078C37.7994 5.58032 37.6754 6.07487 37.4384 6.51778C37.2015 6.96069 36.8588 7.33826 36.4409 7.617C36.0231 7.89574 35.6804 8.27331 35.4435 8.71622C35.2065 9.15913 35.0825 9.65368 35.0825 10.156C35.0825 10.6583 35.2065 11.1529 35.4435 11.5958C35.6804 12.0387 36.0231 12.4163 36.4409 12.695" stroke="#C7A386" stroke-width="1.5" stroke-miterlimit="10" stroke-linecap="round" stroke-linejoin="round"/>
</g>
</g>
</g>
<defs>
<clipPath id="clip0_6_1944">
<rect width="65" height="65" fill="white" transform="translate(0.830078)"/>
</clipPath>
<clipPath id="clip1_6_1944">
<rect width="65" height="65" fill="white" transform="translate(0.830078)"/>
</clipPath>
</defs>
</svg>
