<svg width="62" height="62" viewBox="0 0 62 62" fill="none" xmlns="http://www.w3.org/2000/svg">
<g clip-path="url(#clip0_6_2053)">
<g clip-path="url(#clip1_6_2053)">
<g clip-path="url(#clip2_6_2053)">
<mask id="mask0_6_2053" style="mask-type:luminance" maskUnits="userSpaceOnUse" x="0" y="-1" width="62" height="63">
<path d="M0.019043 -0.0100098H61.881V61.855H0.019043V-0.0100098Z" fill="white"/>
</mask>
<g mask="url(#mask0_6_2053)">
<path d="M36.8073 15.402V7.95299M40.7442 12.468C41.4304 12.7355 42.1726 12.8272 42.9033 12.735M36.8033 7.95299C37.8664 8.75827 39.149 9.22172 40.4813 9.28198C41.7673 9.28198 43.0462 8.14198 43.0462 7.44598M34.8173 14.368C36.788 15.6565 39.0907 16.3444 41.4453 16.348C41.8694 16.3159 42.2663 16.1263 42.5579 15.8166C42.8495 15.5069 43.0147 15.0993 43.0212 14.674V11.574C43.6542 11.315 44.6212 11.074 44.6212 10.588C44.6212 10.163 43.0493 8.62499 43.0493 7.95099V5.89699M17.0262 30.621L22.1443 27.162M44.4073 22.367C41.8573 22.367 40.3583 23.277 38.2903 24.26M33.2733 20.436C26.2733 18.069 19.9152 19.121 17.8622 21.174M17.3343 10.461C15.5002 11.2652 13.7883 12.3236 12.2492 13.605M12.2492 13.605C11.3023 14.3845 10.4232 15.2429 9.62125 16.171C7.36925 18.753 8.32125 22.416 10.2552 24.259L19.6063 33.184C19.5557 34.3943 19.8042 35.5985 20.3297 36.69C20.8552 37.7815 21.6416 38.7267 22.6192 39.442L24.1712 50.865C27.799 50.8194 31.3553 49.8498 34.5042 48.048C34.6813 47.9474 34.8208 47.792 34.9016 47.6051C34.9823 47.4182 35.0001 47.2101 34.9521 47.0122C34.904 46.8144 34.7929 46.6375 34.6354 46.5085C34.4779 46.3794 34.2827 46.3052 34.0793 46.297L27.1363 46.008L25.1483 31.937C25.0537 31.2676 24.7942 30.6322 24.3932 30.088L12.2492 13.605ZM15.6493 18.216C19.0683 15.57 24.0373 14.986 28.0623 15.698C28.2281 15.7275 28.3859 15.7912 28.5258 15.885C28.6656 15.9788 28.7845 16.1007 28.8747 16.2429C28.965 16.385 29.0247 16.5445 29.0501 16.7109C29.0755 16.8774 29.066 17.0474 29.0222 17.21L26.8672 25.231C26.7987 25.4863 26.7897 25.754 26.8412 26.0133C26.8926 26.2726 27.0031 26.5166 27.164 26.7264C27.3248 26.9362 27.5319 27.1062 27.769 27.2232C28.006 27.3401 28.2669 27.401 28.5312 27.401H38.2932V24.26L32.4612 23.131L34.6372 17.065C34.89 16.3605 34.9615 15.6039 34.8453 14.8645C34.7291 14.1252 34.4289 13.4269 33.9723 12.834L32.1953 10.527C31.1103 9.11899 29.4822 8.83298 27.7102 8.69598C25.3995 8.52724 23.0765 8.72434 20.8272 9.27998M23.0533 42.614L26.5462 41.814M27.5632 45.809L36.3563 27.436L25.0902 30.904M19.6093 33.19L12.6273 49.246L23.3773 46.773M38.2922 27.406C40.9992 27.406 42.2652 27.062 43.1202 26.506C43.9407 25.97 44.515 25.1304 44.7171 24.1714C44.9192 23.2125 44.7326 22.2125 44.1982 21.391C43.6622 20.5705 42.8226 19.9962 41.8637 19.7941C40.9047 19.592 39.9048 19.7786 39.0833 20.313C37.3733 21.428 34.2162 23.477 34.2162 23.477M36.3553 27.437L43.7062 35.968C45.3403 37.8222 47.2125 39.4521 49.2743 40.815M17.1842 38.467C15.7424 37.8573 14.1927 37.5441 12.6273 37.546C9.52423 37.546 6.54827 38.7787 4.3541 40.9728C2.15992 43.167 0.927246 46.143 0.927246 49.246C0.927246 52.349 2.15992 55.325 4.3541 57.5191C6.54827 59.7133 9.52423 60.946 12.6273 60.946C15.4484 60.9465 18.1747 59.9276 20.3041 58.077C22.4335 56.2264 23.8224 53.6687 24.2152 50.875M41.0013 32.539C42.0866 31.4508 43.3763 30.5879 44.7962 29.9998C46.2162 29.4116 47.7383 29.1099 49.2752 29.112C52.3783 29.112 55.3542 30.3447 57.5484 32.5388C59.7426 34.733 60.9753 37.709 60.9753 40.812C60.9753 43.915 59.7426 46.891 57.5484 49.0851C55.3542 51.2793 52.3783 52.512 49.2752 52.512C46.1722 52.512 43.1963 51.2793 41.0021 49.0851C38.8079 46.891 37.5753 43.915 37.5753 40.812C37.5727 39.093 37.9504 37.3948 38.6812 35.839M36.8043 7.95299C37.6883 6.08299 38.8873 5.65298 41.0233 5.65298H43.2632C43.3636 5.65389 43.4631 5.6332 43.5547 5.5923C43.6464 5.5514 43.7283 5.49125 43.7947 5.41594C43.8611 5.34063 43.9105 5.2519 43.9396 5.15581C43.9687 5.05971 43.9767 4.95849 43.9633 4.85899C43.6133 2.36899 41.5122 0.890991 36.9002 0.890991C31.8172 0.890991 28.8763 2.91699 28.8763 3.96199C28.8763 6.54999 31.3763 9.65298 31.3763 9.65298C32.1243 7.06998 34.6903 6.46399 36.8073 7.95399L36.8043 7.95299Z" stroke="#C7A386" stroke-width="1.5" stroke-miterlimit="10" stroke-linecap="round" stroke-linejoin="round"/>
</g>
</g>
</g>
</g>
<defs>
<clipPath id="clip0_6_2053">
<rect width="61.86" height="61.84" fill="white" transform="translate(0.0200195)"/>
</clipPath>
<clipPath id="clip1_6_2053">
<rect width="61.86" height="61.84" fill="white" transform="translate(0.0200195)"/>
</clipPath>
<clipPath id="clip2_6_2053">
<rect width="61.862" height="61.86" fill="white" transform="translate(0.019043 -0.0100098)"/>
</clipPath>
</defs>
</svg>
