<svg width="46" height="53" viewBox="0 0 46 53" fill="none" xmlns="http://www.w3.org/2000/svg">
<path d="M26.5639 6.39823H36.7513C36.9215 6.39823 37.1857 6.96372 37.2096 7.17158C37.4643 9.362 37.0203 12.0586 37.2013 14.3047C37.1324 14.82 36.5608 15.1489 36.0941 14.9295C36.042 14.905 35.6867 14.5468 35.6867 14.5174V7.94981H1.52534V51.4942H3.14716V28.8943C3.14716 28.7555 3.68697 28.418 3.89966 28.4303C4.18724 28.4468 4.66773 28.816 4.66773 29.1009V51.4936H17.8454V14.5694H4.66773V25.6884C4.66773 25.7184 4.4155 26.1543 4.36038 26.2019C3.93081 26.5742 3.1178 26.3028 3.14716 25.6902L3.24362 9.78077L3.55636 9.5613L33.3094 9.4965C33.7132 9.38401 34.1661 9.94705 34.1661 10.2772V51.4942H35.6867V17.5173C35.6867 17.4781 36.0312 17.1688 36.118 17.1303C36.6615 16.8888 37.1683 17.2458 37.2096 17.8254L37.1623 52.5341L36.7064 52.9994H0.506829C0.0856458 52.8655 -0.0084164 52.3544 0.000570432 51.9637L0.0814519 6.8384C0.116201 6.75036 0.42415 6.39823 0.461295 6.39823H10.6488V2.72653C10.6488 1.29111 12.1298 0.183975 13.4323 0.0843267C16.8808 -0.178549 20.6721 0.267728 24.1554 0.115505C25.2278 0.155242 26.5639 1.56805 26.5639 2.6226V6.39823ZM12.1693 2.82985C12.0094 3.81472 12.288 5.20918 12.1693 6.24295L12.3215 6.39823H24.8911L25.0433 6.24295V2.72653C25.0433 2.1751 24.2842 1.69826 23.7767 1.64018C20.5966 1.27827 16.7826 1.91467 13.5341 1.63652C12.8733 1.61573 12.2748 2.18244 12.1693 2.82985ZM32.6455 11.053H4.66773V13.0184H32.6455V11.053ZM32.6455 51.4942V14.7247L32.4934 14.5694H19.366V51.4942H32.6455Z" fill="#C7A386"/>
<path d="M41.9441 18.3133C42.2502 18.2454 42.5792 18.2888 42.7679 18.5663C43.6546 20.2622 44.8876 21.9043 45.7395 23.6019C46.105 24.3307 46.1493 24.9304 45.1698 25.0209C43.2016 25.2024 40.9735 24.8711 38.976 25.0209C38.6196 25.0154 38.3158 24.5819 38.3164 24.2396L41.5199 18.6073C41.6218 18.4667 41.7763 18.3505 41.9441 18.3133ZM40.4511 23.465H43.796L42.2239 20.6712C42.0819 20.64 42.0543 20.7562 41.9884 20.8448C41.4282 21.5986 41.0256 22.6917 40.4511 23.465Z" fill="#C7A386"/>
<path d="M38.7999 28.1405L45.5958 28.1974C46.2111 28.6149 46.011 28.9927 45.7402 29.5331C45.0578 30.8927 43.7912 33.0838 42.9267 34.3156C42.5259 34.8866 42.185 35.0835 41.5649 34.5858L38.4021 29.2281C38.1864 28.8032 38.4237 28.3563 38.7999 28.1405ZM43.7966 29.6707H40.4517C41.0263 30.444 41.4289 31.5371 41.9891 32.2909C42.055 32.3795 42.0825 32.4957 42.2245 32.4645L43.7966 29.6707Z" fill="#C7A386"/>
<path d="M14.8793 3.21684C15.2873 3.14225 16.5454 3.13859 16.936 3.2419C17.7724 3.46259 17.655 4.61191 16.9816 4.74151C16.6778 4.79959 14.8607 4.78553 14.5959 4.69872C13.9728 4.49331 14.0009 3.37762 14.8793 3.21684Z" fill="#C7A386"/>
<path d="M19.9017 3.42839C20.2006 3.12272 22.0076 3.11599 22.4366 3.21442C23.2202 3.39415 23.2496 4.6095 22.4515 4.73788C22.1364 4.78862 20.4019 4.79901 20.1473 4.7232C19.6548 4.57587 19.5536 3.78541 19.9011 3.429L19.9017 3.42839Z" fill="#C7A386"/>
</svg>
