<svg width="71" height="53" viewBox="0 0 71 53" fill="none" xmlns="http://www.w3.org/2000/svg">
<g clip-path="url(#clip0_473_31)">
<path d="M17.4214 15.2872H22.3894V12.2009C22.3894 12.1466 22.676 11.2999 22.7337 11.1719C23.777 8.85941 27.0304 7.97102 28.9441 9.79617C30.3526 7.98218 32.8396 7.30956 34.7406 8.83784C36.4785 6.03352 40.3037 6.11239 41.9308 8.96581C43.5765 7.94051 45.9169 8.09007 47.2266 9.59751C47.4392 9.8423 48.1958 11.1422 48.1958 11.378V15.2872H53.5777V3.14736C53.5777 2.29394 55.1292 0.738133 55.924 0.404056C57.0706 -0.0780869 60.672 -0.104129 61.8575 0.267895C62.9794 0.61983 64.6185 2.20391 64.6185 3.42191V6.78278H68.5514C68.6435 6.78278 69.4338 7.1734 69.5775 7.27162C70.3873 7.8237 70.7623 8.63545 70.8341 9.58932C71.3565 16.4866 70.4315 24.0298 70.8289 30.9948C70.8888 31.9256 69.3897 33.532 68.5514 33.532H64.6185V37.0298C64.6185 38.0313 63.0109 39.6541 62.0738 39.9874C60.7865 40.4457 57.0863 40.413 55.8282 39.8683C55.0147 39.5157 53.5777 38.032 53.5777 37.1667V25.0268H49.9898V27.5648C49.9898 27.7761 49.5572 28.7984 49.4135 29.0499C48.6965 30.3073 46.425 32.2017 45.9535 33.2924C45.5569 34.2091 46.3195 36.1213 45.3511 36.6704C44.7381 37.0179 43.962 36.721 43.8085 36.0402C43.7053 35.5811 43.7127 33.1347 43.8422 32.7024C44.0885 31.8773 46.6301 29.4174 47.2857 28.4435C47.5679 28.0246 47.8343 27.663 47.9069 27.1407C48.0821 25.875 48.0753 21.9896 47.9226 20.7024C47.8216 19.8512 47.2625 19.6072 46.4759 19.5343C44.3953 19.3408 40.2797 19.3572 38.1856 19.5343C37.3399 19.6064 36.4111 19.948 36.2218 20.8736C35.5033 24.3765 41.2961 22.6429 42.9928 23.134C43.8976 23.3959 43.8609 24.9108 42.8536 25.134L23.0787 25.0261V27.2895C23.0787 28.3088 26.8455 31.6585 27.2115 32.9212L27.222 51.9844C27.0551 53.4301 25.1997 53.224 25.1451 51.8475L25.1196 33.4919C24.342 31.9606 21.0086 29.2292 21.0086 27.564V25.0261H17.4206V37.166C17.4206 38.0291 15.9664 39.5082 15.1701 39.8669C13.9449 40.4182 10.1893 40.4361 8.92525 39.9859C7.98822 39.6526 6.38061 38.0298 6.38061 37.0283V33.5305H2.44764C2.35558 33.5305 1.56525 33.1399 1.42155 33.0417C0.611753 32.4896 0.236793 31.6779 0.164944 30.724C-0.357456 23.8267 0.567596 16.2835 0.170183 9.31849C0.110309 8.38769 1.6094 6.78129 2.44764 6.78129H6.38061V3.42042C6.38061 1.56328 8.77481 0.168937 10.4453 0.0543536C13.1262 -0.129426 17.0269 -0.0327002 17.4214 3.42117C17.5299 4.37355 17.5546 7.30361 17.4131 8.21432C17.226 9.41968 15.6177 9.24855 15.3804 8.19349C15.0212 6.59676 16.0981 3.31626 14.4359 2.41075C13.6433 1.9792 10.2657 1.97251 9.45663 2.36313C8.96866 2.599 8.57349 3.20167 8.48368 3.72846L8.44326 36.3505C8.50389 37.3862 9.30919 38.0841 10.3128 38.1957C11.0553 38.2783 12.8829 38.282 13.6134 38.1831C14.3214 38.0871 14.9837 37.6057 15.2592 36.9383L15.3587 12.3453C15.5787 10.9606 17.4214 11.4026 17.4214 12.0633V15.2872ZM64.62 8.84007V24.41C64.62 25.1399 62.7766 25.6593 62.5581 24.2649L62.5558 4.10272C62.493 3.00822 61.88 2.31328 60.7888 2.1548C59.9371 2.03129 57.379 2.01492 56.6552 2.36388C56.278 2.54617 55.8073 3.07072 55.7092 3.48144L55.7773 37.041C56.1381 37.7166 56.7481 38.1116 57.5122 38.1972C58.3414 38.2895 60.8689 38.2947 61.5425 37.9494C62.0566 37.6861 62.4885 37.061 62.5536 36.4852L62.5798 28.2805C62.8589 27.0365 64.6207 27.538 64.6207 28.2515V31.4755H68.2783C68.3314 31.4755 68.6136 31.1302 68.657 31.0291L68.7677 9.86388C68.8643 9.52831 68.4519 8.84156 68.1406 8.84156H64.6215L64.62 8.84007ZM6.38061 8.84007H2.86152C2.55017 8.84007 2.13779 9.52682 2.23434 9.86239L2.3451 31.0276C2.38851 31.1288 2.67067 31.474 2.72381 31.474H6.38135V8.84007H6.38061ZM39.7296 9.43679C38.4281 8.0112 36.4852 9.08039 36.3228 10.9621C36.2113 12.256 36.1903 14.9078 36.3273 16.1801C36.3857 16.7225 36.6162 17.3207 37.1146 17.5983C38.0262 17.2567 39.776 17.9613 40.1308 16.8044C40.0806 14.846 40.4114 12.4688 40.1929 10.5551C40.1488 10.1704 39.9908 9.72325 39.7296 9.43679ZM31.8742 10.1064C31.1796 10.2471 30.542 11.0045 30.4267 11.6853C30.274 12.5886 30.2913 15.2329 30.393 16.1794C30.646 18.5305 33.749 18.5358 34.198 16.6682C34.3792 15.9137 34.3559 12.6436 34.2579 11.7887C34.1187 10.5737 33.0821 9.8609 31.8742 10.1057V10.1064ZM45.6661 10.9442C44.6498 9.94051 42.989 10.2448 42.4726 11.5863C42.1455 12.4353 42.1156 16.1035 42.4861 16.9174C42.5602 17.0811 42.7405 17.4026 42.9074 17.4591L45.616 17.4844C45.6878 17.4673 46.0381 16.8981 46.0643 16.8021C46.2372 16.1637 46.223 12.6816 46.1309 11.9227C46.092 11.602 45.8892 11.1637 45.6661 10.9442ZM25.9399 10.9294C25.2895 11.0625 24.6556 11.7627 24.5209 12.3988C24.3622 13.1503 24.3727 15.378 24.4588 16.1794C24.7162 18.57 27.8858 18.5402 28.2915 16.5588C28.4262 15.9003 28.4127 13.3252 28.3259 12.6087C28.1889 11.4785 27.0581 10.7002 25.9399 10.9294ZM22.6656 17.3453H17.4214V22.9695H34.3964C34.0162 21.811 33.9653 20.6511 34.5341 19.5417C33.2423 20.1555 31.9116 20.3334 30.5764 19.7017C30.1176 19.4844 29.825 19.0767 29.3849 18.8721C27.2122 20.9547 23.551 20.2776 22.6656 17.3453ZM53.5792 17.3453H48.1277C48.0536 17.3453 47.8411 17.6503 47.9211 17.7552C48.7908 17.8334 49.9913 19.3832 49.9913 20.1578V22.9695H53.5792V17.3453Z" fill="#C7A386"/>
<path d="M45.5358 52.698C44.8749 53.3505 43.8795 52.8683 43.777 51.9852C43.3481 48.2962 44.1093 43.8155 43.7725 40.0402C43.9409 38.7768 45.7745 38.8877 45.8531 40.1816C45.5904 43.8959 46.1914 48.0544 45.8576 51.7143C45.8314 52.0023 45.7386 52.4978 45.5358 52.698Z" fill="#C7A386"/>
</g>
<defs>
<clipPath id="clip0_473_31">
<rect width="71" height="53" fill="white"/>
</clipPath>
</defs>
</svg>
