<svg width="55" height="47" viewBox="0 0 55 47" fill="none" xmlns="http://www.w3.org/2000/svg">
<path d="M33.4917 44.9306L6.82199 18.1017C5.72028 16.6637 5.82183 14.8913 6.97103 13.5259L20.1192 0.329951C22.178 -1.2232 23.6092 3.12899 23.6333 4.62494C23.6618 6.38855 22.5097 7.23259 23.8678 8.9588C26.2736 12.0182 29.7913 13.5493 33.6407 12.5704C34.5474 12.3401 35.9004 11.2548 36.6441 12.0607L44.2976 30.0334C45.4198 31.6247 47.16 31.0329 48.8017 31.4105C52.1367 32.1776 54.6653 35.2795 54.9407 38.6666C55.2884 42.944 54.1926 46.4778 49.4387 46.9992L9.47033 46.9941C8.61044 46.978 7.98799 46.3231 8.40076 45.4835C8.46286 45.3573 8.81573 44.9298 8.88221 44.9298L33.4917 44.9306ZM39.7359 40.2124H52.8856C53.1763 37.3577 51.5574 34.3885 48.7425 33.5335C47.1023 33.0348 45.7113 33.5701 44.0821 32.6073C42.4529 31.6445 42.1804 30.1096 41.3403 28.5778C40.419 28.7127 39.0156 29.9835 38.2682 29.0067C37.024 27.381 40.5184 26.8919 40.5505 26.5648L39.375 23.7636C39.0178 23.5487 36.5755 25.5903 36.0502 23.8523C35.6031 22.3732 38.3383 22.2449 38.4684 21.6949L37.4456 18.9956C36.9897 18.6715 34.5423 20.7981 33.9907 18.9853C33.5816 17.6405 36.3928 17.2833 36.4425 16.9746L35.4087 14.3288C35.1472 14.1455 33.5815 14.7299 33.0848 14.8143C28.9 15.5249 24.7365 13.4965 22.1831 10.2069C20.2697 7.74151 21.7155 6.47215 21.4459 4.01703C21.4182 3.76697 21.1384 2.66627 20.9287 2.61788L16.0199 7.42912C17.2912 9.10473 19.0204 10.1028 19.7941 12.1619C20.8819 15.0555 20.1484 17.7717 18.2234 20.0677L36.7238 38.6659C37.4156 39.2401 38.8607 40.0871 39.7374 40.2124H39.7359ZM14.4653 8.96027L10.876 12.6965L16.6687 18.5373C17.9231 17.2789 18.4155 15.7038 18.1737 13.9343C17.8712 11.7204 15.83 10.5002 14.4653 8.96027ZM52.5188 42.2767H39.5898C38.6298 42.2767 36.1904 40.9377 35.4007 40.288L9.32275 14.1206C8.14945 15.1993 7.63585 15.8226 8.73391 17.2151C17.8559 26.0845 26.4599 35.5655 35.9128 44.0491C36.4469 44.2823 37.0364 44.5786 37.6012 44.7135C39.6548 45.2048 47.144 45.1557 49.4321 44.9284C50.9349 44.7795 52.0717 43.9648 52.6766 42.5766L52.5188 42.2767Z" fill="#C7A386"/>
<path d="M19.9364 34.9429C20.4324 35.4745 20.0357 36.7695 19.17 36.6771C15.3637 36.3457 10.8356 37.1105 7.11696 36.6771C5.66895 36.5085 5.92027 34.6943 7.26307 34.607C11.0058 34.871 15.1927 34.2682 18.8807 34.6026C19.1715 34.629 19.7464 34.7383 19.9364 34.9429Z" fill="#C7A386"/>
<path d="M2.01205 2.65309C3.2102 2.43676 7.58854 2.48002 8.86559 2.63549C10.2281 2.80121 10.6701 3.97744 9.46686 4.67922H1.68694C0.56624 4.2187 0.828517 2.86648 2.01205 2.65309Z" fill="#C7A386"/>
<path d="M0.685068 21.9618L7.55614 21.9354C8.61694 22.305 8.5563 23.8083 7.40418 23.9865C6.37188 24.1464 1.98696 24.1478 0.956843 23.9865C-0.154364 23.8127 -0.366962 22.4458 0.684338 21.9618H0.685068Z" fill="#C7A386"/>
</svg>
