<svg width="314" height="53" viewBox="0 0 314 53" fill="none" xmlns="http://www.w3.org/2000/svg">
<g clip-path="url(#clip0_28_55)">
<path d="M79.5859 30.8495V30.7701C80.9777 28.3157 81.3257 26.9302 81.3257 23.6841V9.03757C81.3257 5.75204 80.9777 4.40596 79.5859 1.95155V1.87214C85.9358 1.87214 87.4587 1.71381 90.9822 1.71381C100.377 1.67435 102.03 5.47433 102.03 8.48265C102.03 11.5704 100.247 14.2226 96.1147 15.4893C101.726 16.2809 103.683 19.487 103.683 22.7731C103.683 27.2858 100.073 30.8485 91.0261 30.8485H79.5865L79.5859 30.8495ZM91.3735 15.3719C95.7668 15.3324 97.2453 11.8486 97.2453 8.7214C97.2453 4.72363 94.7224 2.50647 90.2423 2.50647C88.5459 2.50647 87.3276 2.6648 86.3276 2.90205V15.3714H91.3729L91.3735 15.3719ZM98.4192 22.9723C98.4192 19.014 96.2881 16.1635 91.7642 16.1635H86.3276V29.5829C87.3715 29.8206 88.7633 30.0579 90.4163 30.0579C95.7662 30.0579 98.4192 27.2079 98.4192 22.9723Z" fill="white"/>
<path d="M107.033 30.7705C107.598 29.6622 107.99 28.3161 107.99 25.3478V7.3358C107.99 4.76301 107.077 3.2586 106.033 2.22919V2.14977L112.34 0.0524902V25.3078C112.34 28.2767 112.732 29.7017 113.34 30.7705V30.85H107.033V30.7705Z" fill="white"/>
<path d="M127.478 28.8305C126.129 30.216 123.954 31.4432 121.214 31.4432C118.648 31.4432 116.56 30.3349 116.56 28.0783C116.56 24.0805 122.824 22.1405 127.39 21.4678V17.1528C127.39 15.0945 126.477 13.7484 123.389 13.7484C121.736 13.7484 119.474 14.144 117.604 15.5295L117.387 15.2918C119.17 12.9957 122.258 11.3729 126.042 11.3729C130.435 11.3729 131.74 13.6295 131.74 16.0834V27.365C131.74 28.3545 132.175 29.1067 133.437 29.1067C134.089 29.1067 134.785 28.9089 135.568 28.3545L135.655 28.4339C135.003 29.7006 133.698 31.3238 131.088 31.3238C128.913 31.3238 127.783 30.1761 127.478 28.83L127.478 28.8305ZM127.39 28.1577V22.1405C123.954 22.8533 120.648 24.1594 120.648 26.7722C120.648 28.316 121.779 29.3055 123.823 29.3055C125.302 29.3055 126.651 28.791 127.39 28.1577Z" fill="white"/>
<path d="M154.185 26.4161C153.054 29.4245 150.357 31.4433 146.052 31.4433C140.137 31.4433 136.309 27.6034 136.309 21.7451C136.309 15.7284 141.615 11.3735 147.313 11.3735C150.314 11.3735 152.054 11.9674 153.055 12.4029L153.62 16.7968L153.229 16.8762C152.054 14.9762 149.053 12.0863 146.66 12.0863C142.964 12.0863 140.571 15.2135 140.571 20.0823C140.571 25.2679 143.572 28.0784 148.139 28.0784C150.227 28.0784 152.532 27.5639 153.924 26.2573L154.185 26.4161Z" fill="white"/>
<path d="M156.884 30.7705C157.449 29.6622 157.84 28.3161 157.84 25.3478V7.3358C157.84 4.76301 156.927 3.2586 155.883 2.22919V2.14977L162.19 0.0524902V25.3078C162.19 28.2767 162.625 29.7017 163.234 30.7705V30.85H156.884V30.7705ZM170.019 30.8495L162.538 21.0323L167.54 16.0841C168.931 14.7385 169.453 13.0358 168.757 12.0468V11.9674H174.412V12.0468C171.802 13.1157 169.932 14.8174 168.149 16.5595L165.887 18.8162L172.281 27.2083C173.586 28.9105 174.543 30.0188 176.065 30.771V30.8505H170.019V30.8495Z" fill="white"/>
<path d="M176.762 30.8494V30.77C178.98 27.9994 179.502 26.5345 179.502 22.9718V7.41519C179.328 4.88187 178.589 3.69412 176.414 1.95246V1.87305H184.33L195.509 24.3973L206.252 1.87305H213.951V1.95246C211.471 3.93187 210.863 5.19853 210.863 8.56298V23.6845C210.863 26.97 211.211 28.3161 212.603 30.7705V30.8499H204.121V30.7705C205.512 28.3161 205.861 26.9306 205.861 23.6845V4.96078L193.899 29.9784H192.986L180.372 4.80195L180.503 22.9718C180.546 26.5345 181.111 27.9989 183.634 30.77V30.8494H176.762Z" fill="white"/>
<path d="M227.742 28.8305C226.394 30.216 224.219 31.4432 221.479 31.4432C218.912 31.4432 216.825 30.3349 216.825 28.0783C216.825 24.0805 223.088 22.1405 227.655 21.4678V17.1528C227.655 15.0945 226.742 13.7484 223.654 13.7484C222.001 13.7484 219.739 14.144 217.869 15.5295L217.651 15.2918C219.435 12.9957 222.523 11.3729 226.307 11.3729C230.7 11.3729 232.005 13.6295 232.005 16.0834V27.365C232.005 28.3545 232.44 29.1067 233.701 29.1067C234.353 29.1067 235.05 28.9089 235.833 28.3545L235.92 28.4339C235.268 29.7006 233.963 31.3238 231.353 31.3238C229.178 31.3238 228.047 30.1761 227.743 28.83L227.742 28.8305ZM227.655 28.1577V22.1405C224.219 22.8533 220.913 24.1594 220.913 26.7722C220.913 28.316 222.045 29.3055 224.088 29.3055C225.567 29.3055 226.916 28.791 227.655 28.1577Z" fill="white"/>
<path d="M244.012 30.8495H237.705V30.7701C238.531 28.5929 238.705 26.6534 238.705 23.1696V18.4986C238.705 15.8863 237.791 14.4214 236.748 13.3525V13.2731L242.881 11.1753V14.9753L243.055 15.0147C244.794 12.6397 246.969 11.3726 249.709 11.3726C252.884 11.3726 254.494 12.8375 254.843 14.9748L254.973 15.0142C256.756 12.6392 258.931 11.3721 261.671 11.3721C265.281 11.3721 266.934 13.391 266.934 16.637V23.1292C266.934 26.6919 267.021 28.5919 267.891 30.7691V30.8485H261.628V30.7691C262.411 28.5919 262.584 26.4941 262.584 23.1686V17.5476C262.584 15.5287 261.888 13.787 259.366 13.787C257.931 13.787 256.147 14.3414 254.973 15.9248V23.1292C254.973 26.6919 255.059 28.5919 255.973 30.7691V30.8485H249.666V30.7691C250.493 28.5919 250.623 26.4941 250.623 23.1686V17.5476C250.623 15.5287 249.971 13.787 247.404 13.787C245.969 13.787 244.186 14.3414 243.055 15.9248V23.1292C243.055 26.573 243.142 28.5919 244.012 30.7691V30.8485V30.8495Z" fill="white"/>
<path d="M274.852 29.4639L272.677 31.245H272.503V7.3358C272.503 4.76301 271.59 3.2586 270.546 2.18973V2.11032L276.852 0.0524902V14.699H276.939C278.418 13.0762 280.898 11.374 284.247 11.374C289.466 11.374 292.598 15.4912 292.598 21.1912C292.598 26.8517 289.031 31.4438 281.854 31.4438C278.723 31.4438 276.374 30.5333 274.851 29.4644L274.852 29.4639ZM288.031 21.9429C288.031 16.2823 285.422 13.9468 281.638 13.9468C279.376 13.9468 277.81 14.7779 276.853 15.5696V23.5262C276.853 28.9889 279.941 30.7306 282.29 30.7306C285.683 30.7306 288.031 27.3656 288.031 21.9429Z" fill="white"/>
<path d="M305.823 28.8305C304.475 30.216 302.3 31.4432 299.56 31.4432C296.993 31.4432 294.906 30.3349 294.906 28.0783C294.906 24.0805 301.169 22.1405 305.736 21.4678V17.1528C305.736 15.0945 304.823 13.7484 301.735 13.7484C300.082 13.7484 297.82 14.144 295.95 15.5295L295.732 15.2918C297.516 12.9957 300.604 11.3729 304.388 11.3729C308.781 11.3729 310.086 13.6295 310.086 16.0834V27.365C310.086 28.3545 310.521 29.1067 311.782 29.1067C312.434 29.1067 313.131 28.9089 313.914 28.3545L314.001 28.4339C313.349 29.7006 312.044 31.3238 309.434 31.3238C307.259 31.3238 306.129 30.1761 305.824 28.83L305.823 28.8305ZM305.736 28.1577V22.1405C302.299 22.8533 298.994 24.1594 298.994 26.7722C298.994 28.316 300.125 29.3055 302.169 29.3055C303.648 29.3055 304.996 28.791 305.736 28.1577Z" fill="white"/>
<path d="M79.1221 42.8008H81.9161C82.4408 42.8008 82.9627 42.8288 83.4824 42.8852C84.0016 42.9411 84.4676 43.063 84.8797 43.2503C85.2908 43.4376 85.6256 43.7118 85.883 44.0724C86.1398 44.4331 86.2688 44.9226 86.2688 45.5404C86.2688 46.2706 86.0268 46.861 85.5432 47.3105C85.0592 47.7601 84.3902 48.0457 83.5368 48.1671L86.6392 52.7468H85.0493L82.0857 48.2795H80.4189V52.7468H79.1226V42.8003L79.1221 42.8008ZM80.4189 47.1837H81.5764C81.9364 47.1837 82.3096 47.1742 82.6954 47.1557C83.0812 47.1372 83.4369 47.0763 83.7601 46.9729C84.0845 46.87 84.3518 46.7087 84.5631 46.4884C84.7738 46.2686 84.8797 45.9525 84.8797 45.5404C84.8797 45.1848 84.8023 44.8991 84.6481 44.6833C84.4939 44.468 84.2903 44.3017 84.0384 44.1843C83.7859 44.0675 83.5027 43.99 83.1894 43.9526C82.8754 43.9151 82.5588 43.8961 82.2405 43.8961H80.4189V47.1837Z" fill="white"/>
<path d="M102.446 42.8008H109.315V43.8966H103.743V47.0153H108.945V48.1112H103.743V51.6514H109.594V52.7473H102.447L102.446 42.8008Z" fill="white"/>
<path d="M129.043 42.8008H130.262L134.909 52.7473H133.396L132.285 50.3029H126.821L125.693 52.7473H124.227L129.043 42.8008ZM129.63 44.3182H129.599L127.33 49.207H131.791L129.63 44.3182Z" fill="white"/>
<path d="M150.253 42.8008H151.55V51.6514H156.551V52.7473H150.253V42.8008H150.253Z" fill="white"/>
<path d="M190.048 42.8008H196.917V43.8966H191.345V47.0153H196.547V48.1112H191.345V51.6514H197.196V52.7473H190.049L190.048 42.8008Z" fill="white"/>
<path d="M218.281 44.5569C218.065 44.2382 217.777 44.0065 217.417 43.8611C217.057 43.7158 216.681 43.6433 216.29 43.6433C216.002 43.6433 215.719 43.6763 215.441 43.7417C215.163 43.8072 214.913 43.9056 214.693 44.0364C214.471 44.1678 214.293 44.3411 214.16 44.5564C214.026 44.7717 213.959 45.0249 213.959 45.3151C213.959 45.5398 213.997 45.7391 214.075 45.912C214.152 46.0853 214.278 46.2421 214.453 46.3825C214.627 46.5228 214.864 46.6542 215.163 46.776C215.462 46.8979 215.827 47.0198 216.259 47.1412C216.681 47.263 217.09 47.3939 217.486 47.5347C217.882 47.6751 218.232 47.8534 218.535 48.0687C218.839 48.2844 219.081 48.5537 219.261 48.8763C219.441 49.1995 219.531 49.6046 219.531 50.0915C219.531 50.588 219.423 51.0186 219.207 51.3842C218.99 51.7493 218.705 52.0515 218.35 52.2902C217.995 52.529 217.585 52.7068 217.123 52.8242C216.66 52.9415 216.181 53 215.687 53C215.368 53 215.049 52.974 214.731 52.9225C214.411 52.8711 214.105 52.7912 213.812 52.6838C213.519 52.5764 213.243 52.4356 212.986 52.2622C212.728 52.0889 212.507 51.8762 212.322 51.6229L213.433 50.7938C213.67 51.1589 213.999 51.4356 214.422 51.6229C214.844 51.8102 215.291 51.9036 215.764 51.9036C216.042 51.9036 216.323 51.8662 216.605 51.7912C216.888 51.7163 217.143 51.6064 217.37 51.4611C217.596 51.3157 217.781 51.1359 217.925 50.9202C218.07 50.7044 218.142 50.4567 218.142 50.1754C218.142 49.8663 218.085 49.6155 217.972 49.4237C217.858 49.2319 217.684 49.0656 217.447 48.9248C217.21 48.7844 216.912 48.6581 216.552 48.5457C216.191 48.4333 215.769 48.3024 215.285 48.1521C214.894 48.0397 214.535 47.9113 214.205 47.766C213.875 47.6207 213.59 47.4428 213.348 47.2321C213.106 47.0213 212.916 46.7685 212.777 46.4734C212.638 46.1787 212.568 45.825 212.568 45.4125C212.568 44.935 212.671 44.5184 212.877 44.1623C213.082 43.8067 213.361 43.509 213.711 43.2702C214.06 43.0315 214.457 42.8512 214.899 42.7293C215.342 42.6079 215.805 42.5465 216.289 42.5465C216.906 42.5465 217.469 42.6334 217.978 42.8067C218.488 42.9801 218.943 43.2822 219.344 43.7128L218.28 44.5559L218.281 44.5569Z" fill="white"/>
<path d="M242.903 43.8966H239.291V52.7473H237.994V43.8966H234.382V42.8008H242.903V43.8966Z" fill="white"/>
<path d="M260.455 42.8008H261.674L266.321 52.7473H264.808L263.696 50.3029H258.232L257.105 52.7473H255.639L260.455 42.8008ZM261.041 44.3182H261.01L258.741 49.207H263.202L261.041 44.3182Z" fill="white"/>
<path d="M287.576 43.8966H283.964V52.7473H282.667V43.8966H279.056V42.8008H287.576V43.8966Z" fill="white"/>
<path d="M302.997 42.8008H309.866V43.8966H304.294V47.0153H309.496V48.1112H304.294V51.6514H310.144V52.7473H302.998L302.997 42.8008Z" fill="white"/>
<path d="M47.817 23.4482C53.7212 21.5642 57.632 17.1679 57.7089 11.3051C57.7857 2.16322 51.4211 0 42.6026 0H7.98535V0.697763C9.82609 0.697763 11.3595 1.95394 11.3595 3.55874V13.9323C11.4731 14.0202 16.5266 18.5324 16.9574 18.913V2.02336H38.9217C46.513 2.02336 52.1872 3.20961 52.1109 11.3051C52.0291 17.8886 47.7868 20.6057 42.4374 21.7086V25.101C48.9848 26.2807 54.0279 29.4614 54.0279 37.9639C54.0279 46.9664 48.1238 50.9437 38.8449 50.9437H16.9574V27.7767C14.3851 27.1358 11.3595 24.131 11.3595 24.131V49.8269C11.3595 51.083 9.28934 52.2693 7.98535 52.2693V52.967H41.4518C52.2635 52.967 59.6248 48.4313 59.6248 37.9629C59.6248 30.2166 56.0207 25.3312 47.8164 23.4472L47.817 23.4482Z" fill="url(#paint0_linear_28_55)"/>
<path d="M40.0753 39.5448C39.7701 38.891 39.6527 38.1792 39.6527 37.469C39.6527 33.9527 39.6516 18.2763 39.6384 15.2565C39.6368 14.6881 39.6313 14.2096 39.6225 13.8415C39.7839 13.0997 40.904 12.2147 41.7508 12.0668C41.8858 12.0434 41.9835 11.937 41.9835 11.8121C41.9835 11.7402 41.9517 11.6748 41.9001 11.6278C41.8485 11.5808 41.7766 11.5519 41.6976 11.5519H37.3603C37.0815 11.5519 36.8812 11.7087 36.6567 11.8621C36.0036 12.4085 35.3565 13.0153 34.7166 13.6277C34.2666 14.0383 33.8193 14.4538 33.3742 14.8734C31.1756 16.9502 29.0199 19.1054 26.7121 20.9784C25.2149 22.1926 23.4066 22.8779 21.5592 22.9488C19.713 22.8774 17.9058 22.1921 16.4102 20.9784C13.1821 18.3592 10.2514 15.1855 7.0836 12.4504C6.86682 12.2561 6.64894 12.0653 6.43051 11.883C6.20659 11.7297 6.00627 11.5729 5.72747 11.5729H1.39071C1.31168 11.5729 1.23978 11.6013 1.18819 11.6488C1.13605 11.6957 1.10477 11.7612 1.10477 11.8331C1.10477 11.958 1.20246 12.0643 1.33747 12.0878C2.25235 12.2476 3.48774 13.2676 3.48774 14.0373V14.5152C3.45646 17.4147 3.47622 34.2439 3.48061 37.5854C3.48116 38.1088 3.40597 38.6288 3.2276 39.1262C2.77483 40.3884 1.84952 41.4168 0 41.9952C0.447287 42.5501 1.56962 42.4667 2.23863 42.4667C7.23562 42.4667 7.21587 38.1598 7.21587 38.1598C7.21587 38.0724 7.25538 17.7678 7.19391 17.2953C9.53957 19.2408 11.6531 21.4954 13.9828 23.4453C15.952 25.0936 17.8366 26.131 20.5966 26.2643C20.9237 26.2803 22.2025 26.2798 22.5279 26.2643C25.2879 26.131 27.1726 25.0941 29.1412 23.4463C31.4715 21.4959 33.5844 19.2418 35.9301 17.2963C35.8779 17.6999 35.918 38.0549 35.9185 38.1683C35.9185 38.1683 35.8982 42.4752 40.8958 42.4752C41.5648 42.4752 42.6871 42.5586 43.1344 42.0037C41.4901 41.4897 40.5764 40.6197 40.0753 39.5463V39.5448Z" fill="url(#paint1_linear_28_55)"/>
</g>
<defs>
<linearGradient id="paint0_linear_28_55" x1="7.98535" y1="26.484" x2="59.6253" y2="26.484" gradientUnits="userSpaceOnUse">
<stop offset="0.006" stop-color="#EAC17D"/>
<stop offset="0.185" stop-color="#ECCF88"/>
<stop offset="0.41" stop-color="#F4E8D9"/>
<stop offset="0.73" stop-color="#BF8229"/>
<stop offset="0.949" stop-color="#EABE80"/>
</linearGradient>
<linearGradient id="paint1_linear_28_55" x1="-247.812" y1="27.0145" x2="51.1406" y2="27.0145" gradientUnits="userSpaceOnUse">
<stop offset="0.006" stop-color="#EAC17D"/>
<stop offset="0.185" stop-color="#ECCF88"/>
<stop offset="0.41" stop-color="#F4E8D9"/>
<stop offset="0.73" stop-color="#BF8229"/>
<stop offset="0.949" stop-color="#EABE80"/>
</linearGradient>
<clipPath id="clip0_28_55">
<rect width="314" height="53" fill="white"/>
</clipPath>
</defs>
</svg>
