<svg width="67" height="52" viewBox="0 0 67 52" fill="none" xmlns="http://www.w3.org/2000/svg">
<path d="M0.622115 12.1757C0.236304 12.0937 -0.0878516 11.5429 0.0971183 11.146C0.220432 10.8818 2.30821 8.94372 2.7105 8.55525C5.06017 6.28659 8.19795 2.9961 10.6935 1.06886C12.7154 -0.492843 15.2982 -0.307056 17.165 1.38735L27.2389 10.9415C27.5246 11.2305 27.3408 12.1763 26.9055 12.1763H24.8788V22.3819H33.313C34.4985 22.3819 36.151 23.5679 36.6693 24.621L45.1431 42.9561L51.1622 46.927V26.2575H42.8587C42.2007 26.2575 41.0951 25.3576 40.8595 24.7447C40.0659 22.6823 41.473 18.7892 42.6072 16.9664C47.5355 9.04807 58.7979 8.64151 64.4233 16.0634C65.9446 18.0708 68.0562 23.0986 66.3872 25.3449C66.1124 25.7147 65.2663 26.2575 64.8268 26.2575H56.5233V51.5132C56.5233 51.5494 56.3206 51.8655 56.2614 51.9004L43.7805 51.9584C41.926 50.8376 39.9328 49.7597 38.4207 48.2106L30.3705 30.7786H27.494C27.5032 31.2714 27.6534 32.9748 26.9055 32.9748H24.8788V51.6423C24.8788 51.6646 24.6774 51.8703 24.6151 51.8986C24.3874 52.0042 21.263 52.0313 20.8937 51.962C20.7503 51.9348 20.4328 51.7388 20.4328 51.6423V32.9748H17.5563V49.1878C17.5563 49.4038 16.8592 49.6963 16.6394 49.706C16.8048 50.2272 17.6864 51.0735 17.538 51.6145C17.3054 52.0965 16.6357 52.1116 16.3159 51.7056C16.0405 51.3558 16.0467 49.4394 16.126 48.9381C16.217 48.3651 16.6187 48.1925 17.1638 48.2179C16.9483 48.0043 16.7865 47.45 16.5857 47.3046C16.0857 46.9433 12.3705 47.3167 11.4938 47.2039C10.8992 47.3963 11.8992 49.8894 10.3639 49.6414C10.5324 50.165 11.4071 51.0843 11.2606 51.6145C11.0952 52.2135 9.97134 51.9529 9.97134 51.6429V48.6715C9.97134 48.3192 10.5855 48.175 10.8864 48.2179C10.8718 47.9163 9.97134 46.9439 9.97134 46.8625V32.9748H7.09484V51.5132C7.09484 51.5494 6.89217 51.8655 6.83295 51.9004L2.8326 51.848C2.76361 51.7949 2.51821 51.3117 2.51821 51.2544V32.9748H0.622115C0.565342 32.9748 0.142292 32.6781 0.0983392 32.5882C-0.0017765 32.3855 -0.0310787 29.3791 0.0366826 29.0371C0.0794149 28.8212 0.453018 28.4532 0.622726 28.4532H2.51882V12.1757C1.96208 12.0967 1.1349 12.2843 0.622726 12.1757H0.622115ZM24.8788 10.7545C24.2 9.99028 23.4644 9.26281 22.7245 8.55525C20.7295 6.6461 18.4525 4.293 16.3806 2.54973C14.8306 1.2456 13.3789 0.893325 11.6062 2.09974L2.5176 10.7551H24.8782L24.8788 10.7545ZM23.44 12.1757H3.95646V28.4532H8.40245V22.5756C8.40245 18.8429 12.8082 16.5019 16.0747 18.0962C17.3164 18.7024 18.994 20.6556 18.994 22.0586V28.4532H23.44V12.1757ZM57.3078 12.6945C55.0222 11.9646 52.5303 11.9905 50.2472 12.6945C51.3649 16.105 56.2694 16.1689 57.3078 12.6945ZM44.7548 24.8358H48.8083C49.6062 19.1011 58 19.1132 58.8773 24.8358H63.5845L62.0822 23.8007C59.9828 21.6074 60.0145 17.844 62.6688 16.1164C61.5523 14.8968 60.2075 13.89 58.688 13.2048C57.2003 17.7312 50.4175 17.8211 49.069 13.209C47.6173 13.7066 46.3829 14.7061 45.2804 15.7286C48.2155 17.5816 48.638 21.5465 46.1241 23.928L44.7554 24.8364L44.7548 24.8358ZM42.1384 23.8031C44.9276 24.0884 46.8866 21.7263 46.234 19.0462C46.0344 18.2265 45.1272 17.0562 44.2488 16.973C42.9198 19.0112 41.9876 21.3257 42.1384 23.8031ZM63.5821 17.2149C63.4118 17.0985 62.9197 17.6607 62.8031 17.7988C60.8716 20.0855 62.5235 23.7452 65.5453 23.8031C65.5893 21.4373 64.7603 19.2242 63.5821 17.2149ZM17.5557 28.4532V21.9295C17.5557 21.7208 16.8799 20.5572 16.6944 20.3262C14.91 18.1016 11.2258 18.7356 10.1691 21.3499C10.1099 21.4964 9.8407 22.2517 9.8407 22.3174V28.4538H17.5557V28.4532ZM57.4384 24.8358C56.5819 20.9475 50.9999 20.851 50.2465 24.8358H57.4384ZM33.313 23.8025H24.8788V28.4532H26.9055C27.284 28.4532 27.3323 29.3128 27.3695 29.3514C27.5874 29.5764 30.9303 28.9551 31.3491 29.7483L39.4157 47.2286C40.7246 48.6811 42.5987 49.5317 44.167 50.6735H54.0393C54.1126 50.3725 53.9807 50.4606 53.8739 50.378C50.8711 48.0484 47.0667 46.1959 44.0412 43.8217L35.5387 25.48C35.1785 24.6584 34.203 23.9274 33.313 23.8025ZM55.0851 26.2569H52.6005V47.9603L55.0851 49.5105V26.2569ZM26.0552 29.8744H1.47188V31.5537H26.0552V29.8744ZM5.65659 32.9748H3.95646V50.4793C4.37218 50.8672 5.11389 50.5987 5.65659 50.6729V32.9748ZM16.1175 32.9748H11.2789V34.9123H16.1175V32.9748ZM23.44 32.9748H21.7398V50.4793C22.1555 50.8672 22.8973 50.5987 23.44 50.6729V32.9748ZM16.1175 36.3335H11.2789V38.5298H16.1175V36.3335ZM16.1175 39.9509H11.2789V42.0827L11.4749 42.2763H16.1169L16.1175 39.9509ZM16.1175 43.5678H11.2789V45.6995L11.4749 45.8931H16.1169L16.1175 43.5678Z" fill="#C7A386"/>
</svg>
