<svg width="39" height="52" viewBox="0 0 39 52" fill="none" xmlns="http://www.w3.org/2000/svg">
<g clip-path="url(#clip0_6_2033)">
<g clip-path="url(#clip1_6_2033)">
<g clip-path="url(#clip2_6_2033)">
<path d="M1.90945 14.5905V47.2265C1.86298 47.9458 2.03743 48.6622 2.40945 49.2795C2.65127 49.679 2.98021 50.0187 3.37173 50.2733C3.76324 50.5278 4.2072 50.6906 4.67045 50.7495C5.02477 50.7937 5.3814 50.8167 5.73845 50.8185H23.8235C24.1807 50.8236 24.5378 50.8006 24.8915 50.7495C25.6434 50.6503 26.3368 50.2907 26.8513 49.7333C27.3657 49.176 27.6686 48.456 27.7075 47.6985V33.5505C27.7075 33.3425 27.7075 33.1205 27.7215 32.9125C27.7302 32.7795 27.7898 32.6549 27.8879 32.5646C27.986 32.4743 28.1151 32.4252 28.2485 32.4275C28.3916 32.4184 28.5328 32.4655 28.6417 32.5589C28.7506 32.6523 28.8187 32.7846 28.8315 32.9275C28.8453 33.0705 28.8453 33.2145 28.8315 33.3575V47.5045C28.8529 48.6512 28.423 49.7605 27.6344 50.5932C26.8458 51.4259 25.7616 51.9156 24.6155 51.9565H5.32145C4.55487 51.975 3.79614 51.7985 3.11645 51.4435C2.45261 51.113 1.88766 50.6133 1.47858 49.9948C1.06951 49.3762 0.83077 48.6608 0.786453 47.9205C0.763259 47.6575 0.753913 47.3935 0.758453 47.1295V29.7645C0.758453 27.6975 0.689453 25.6315 0.689453 23.5505C0.689453 17.2395 0.744453 10.9285 0.744453 4.63153C0.714526 4.03482 0.806103 3.43825 1.01363 2.878C1.22116 2.31774 1.54032 1.80547 1.95175 1.37225C2.36318 0.939035 2.85832 0.593892 3.40713 0.357755C3.95594 0.121618 4.547 -0.000593245 5.14445 -0.00146821C11.5805 -0.00146821 18.0025 -0.0154682 24.4375 -0.00146821C25.4624 -0.0147949 26.4587 0.336305 27.2488 0.989235C28.0389 1.64216 28.5714 2.55448 28.7515 3.56353C28.8025 3.81927 28.8257 4.0798 28.8205 4.34053C28.8322 4.41815 28.8264 4.49743 28.8033 4.57247C28.7803 4.64752 28.7406 4.71641 28.6873 4.77405C28.634 4.83168 28.5684 4.87657 28.4954 4.90539C28.4223 4.93421 28.3438 4.94622 28.2655 4.94053C28.1943 4.94266 28.1235 4.93069 28.057 4.9053C27.9906 4.87992 27.9298 4.84163 27.8782 4.79264C27.8266 4.74364 27.7852 4.68492 27.7564 4.61985C27.7276 4.55479 27.712 4.48466 27.7105 4.41353C27.6685 4.20553 27.6685 3.98353 27.6275 3.77553C27.4932 3.04242 27.1058 2.37973 26.5328 1.90309C25.9599 1.42645 25.2378 1.16612 24.4925 1.16753C23.8545 1.15353 23.2025 1.16753 22.5645 1.16753H5.33445C4.7135 1.13337 4.0958 1.27836 3.5549 1.58524C3.014 1.89213 2.57267 2.34798 2.28345 2.89853C2.01067 3.43401 1.88603 4.03268 1.92245 4.63253V14.5635L1.90945 14.5905Z" fill="#C7A386"/>
<path d="M17.8453 39.5016C17.3453 40.0146 16.9453 40.4446 16.5133 40.8606C16.3885 41.0073 16.2334 41.1252 16.0586 41.206C15.8837 41.2868 15.6934 41.3287 15.5008 41.3287C15.3082 41.3287 15.1179 41.2868 14.9431 41.206C14.7682 41.1252 14.6131 41.0073 14.4883 40.8606C13.9883 40.3886 13.5173 39.8896 12.9883 39.3766C12.5443 39.8206 12.1423 40.2226 11.7403 40.6106C11.2553 41.0826 11.0333 41.0826 10.5473 40.6106C9.70131 39.7786 8.85531 38.9326 8.02331 38.0866C7.55131 37.6016 7.55131 37.3796 8.02331 36.8936C8.41131 36.4936 8.82331 36.0936 9.28531 35.6176C8.70231 35.0626 8.13431 34.5496 7.60731 34.0086C7.427 33.876 7.28088 33.7024 7.18107 33.5021C7.08125 33.3018 7.03061 33.0806 7.03335 32.8569C7.03609 32.6331 7.09212 32.4132 7.19681 32.2154C7.30149 32.0176 7.45181 31.8477 7.63531 31.7196C8.02331 31.3316 8.39831 30.9426 8.82831 30.5266C8.34331 30.0686 7.89931 29.6386 7.45531 29.2266C7.29263 29.0893 7.1396 28.9409 6.99731 28.7826C6.84616 28.6448 6.72592 28.4766 6.64451 28.289C6.5631 28.1015 6.52238 27.8987 6.52502 27.6943C6.52767 27.4898 6.57362 27.2882 6.65986 27.1028C6.74609 26.9174 6.87065 26.7523 7.02531 26.6186C7.70531 25.9526 8.37031 25.2736 9.05031 24.6076C9.22168 24.4415 9.41278 24.2971 9.61931 24.1776C9.83719 24.0262 10.1017 23.9571 10.3658 23.9825C10.6299 24.008 10.8764 24.1264 11.0613 24.3166C11.2833 24.5246 11.5333 24.7166 11.7413 24.9406C15.6666 28.8799 19.5966 32.8236 23.5313 36.7716C23.6703 36.9106 23.8083 37.0356 23.9313 37.1716C24.0753 37.2995 24.1905 37.4565 24.2694 37.6323C24.3484 37.808 24.3892 37.9984 24.3892 38.1911C24.3892 38.3837 24.3484 38.5741 24.2694 38.7499C24.1905 38.9256 24.0753 39.0826 23.9313 39.2106C23.2103 39.9736 22.4753 40.7106 21.7123 41.4296C21.5863 41.5678 21.4327 41.678 21.2613 41.7529C21.0899 41.8279 20.9047 41.8659 20.7177 41.8646C20.5307 41.8633 20.346 41.8226 20.1757 41.7453C20.0054 41.6679 19.8533 41.5556 19.7293 41.4156C19.1053 40.8326 18.5223 40.1946 17.8573 39.5156L17.8453 39.5016ZM23.1993 38.0726C18.8993 33.7866 14.581 29.4776 10.2443 25.1456C9.21831 25.9086 8.53831 26.8796 7.66431 27.6556C12.0753 32.0246 16.4163 36.3106 20.7163 40.5686L23.2163 38.0686L23.1993 38.0726ZM15.5573 40.1806C16.0423 39.6806 16.5283 39.2096 16.9163 38.8076C14.4333 36.3246 12.0163 33.8976 9.56531 31.4426L8.18831 32.8156L15.5573 40.1806ZM9.17731 37.4486C9.85731 38.1426 10.5223 38.8076 11.1603 39.4486C11.4653 39.1576 11.7703 38.8486 12.0203 38.6166C11.3683 37.9226 10.7303 37.2436 10.1203 36.5916C9.80131 36.8826 9.49631 37.1746 9.19131 37.4656L9.17731 37.4486Z" fill="#C7A386"/>
<path d="M36.1263 16.1855C36.6673 16.7265 37.1263 17.1855 37.5683 17.6415C37.7405 17.7646 37.8808 17.927 37.9776 18.1152C38.0744 18.3034 38.1249 18.5119 38.1249 18.7235C38.1249 18.9352 38.0744 19.1437 37.9776 19.3319C37.8808 19.5201 37.7405 19.6825 37.5683 19.8055C37.1683 20.2055 36.7683 20.6055 36.3203 21.0675C36.9203 21.6775 37.4993 22.2325 38.0543 22.8155C38.2849 23.0491 38.4563 23.3343 38.5543 23.6475C38.6157 23.9284 38.5961 24.2208 38.4978 24.4909C38.3996 24.7611 38.2267 24.9978 37.9993 25.1735C37.4163 25.7425 36.8343 26.2965 36.2513 26.8655C36.1963 26.9205 36.1403 26.9485 36.0853 27.0045C35.9509 27.1948 35.7726 27.3498 35.5655 27.4563C35.3584 27.5628 35.1286 27.6177 34.8957 27.6163C34.6627 27.615 34.4336 27.5573 34.2278 27.4484C34.0219 27.3394 33.8454 27.1824 33.7133 26.9905C31.7853 25.0485 29.8713 23.1065 27.9433 21.1655C25.7933 19.0015 23.6293 16.8515 21.4803 14.7025C21.2331 14.4782 21.0297 14.21 20.8803 13.9115C20.7752 13.668 20.7468 13.3983 20.7988 13.1382C20.8507 12.8781 20.9807 12.64 21.1713 12.4555C21.9203 11.6925 22.6713 10.9155 23.4463 10.1805C23.5734 10.0433 23.7278 9.93434 23.8997 9.86067C24.0716 9.787 24.2571 9.7503 24.444 9.75294C24.631 9.75558 24.8154 9.79751 24.9851 9.876C25.1548 9.95449 25.3062 10.0678 25.4293 10.2085C26.0533 10.7915 26.6363 11.4155 27.2883 12.0535C27.7183 11.6235 28.1203 11.2215 28.5223 10.8325C28.6484 10.6551 28.8154 10.5106 29.0092 10.4113C29.2029 10.3121 29.4177 10.261 29.6354 10.2624C29.8531 10.2637 30.0673 10.3175 30.2598 10.4192C30.4523 10.5209 30.6175 10.6675 30.7413 10.8465C31.2683 11.3595 31.7953 11.8865 32.3223 12.3995C32.3363 12.4135 32.3643 12.3995 32.4613 12.4275C32.8353 12.0665 33.2383 11.6645 33.6403 11.2765C34.1403 10.8045 34.3613 10.7915 34.8333 11.2765C35.6793 12.1085 36.5253 12.9545 37.3573 13.8005C37.8153 14.2725 37.8153 14.5355 37.3573 15.0075C36.9693 15.3955 36.5663 15.7565 36.0953 16.2145L36.1263 16.1855ZM37.4163 24.0355C33.0333 19.6525 28.7063 15.3255 24.3923 10.9975C23.4827 11.7317 22.6669 12.5751 21.9633 13.5085C26.2766 17.8219 30.5993 22.1492 34.9313 26.4905C35.8213 25.6175 36.6393 24.8115 37.4163 24.0355ZM28.2893 12.7875C30.7583 15.2705 33.1713 17.6875 35.5993 20.1245L36.8993 18.8245L29.5893 11.5145C29.1593 11.9305 28.6893 12.4025 28.2713 12.8045L28.2893 12.7875ZM36.2093 14.4515L34.2813 12.3985C33.9346 12.7179 33.6156 13.0092 33.3243 13.2725L35.3633 15.3115C35.6543 15.0205 35.9633 14.7015 36.2093 14.4515Z" fill="#C7A386"/>
<path d="M17.8863 28.5575C17.7709 28.5597 17.6572 28.5297 17.5579 28.4708C17.4587 28.4118 17.3778 28.3264 17.3245 28.224C17.2712 28.1216 17.2475 28.0064 17.2561 27.8913C17.2647 27.7762 17.3053 27.6658 17.3733 27.5725C17.5605 27.3289 17.7629 27.0975 17.9793 26.8795C20.0046 24.8682 22.0296 22.8615 24.0543 20.8595C24.1506 20.7521 24.2575 20.6546 24.3733 20.5685C24.4716 20.4782 24.6003 20.4281 24.7338 20.4281C24.8673 20.4281 24.996 20.4782 25.0943 20.5685C25.2002 20.6652 25.2684 20.7964 25.2867 20.9387C25.3051 21.081 25.2723 21.2251 25.1943 21.3455C25.0981 21.4787 24.9863 21.5999 24.8613 21.7065L20.7003 25.9065C19.9373 26.6835 19.1603 27.4465 18.3843 28.2065C18.2302 28.3281 18.0682 28.4394 17.8993 28.5395L17.8863 28.5575Z" fill="#C7A386"/>
<path d="M27.6654 23.2595C28.3594 23.7035 28.4284 23.9805 27.9564 24.4805C27.4564 24.9935 26.9304 25.4655 26.4164 25.9645C25.5284 26.8525 24.6684 27.7645 23.7814 28.6555C22.9354 29.5015 22.0894 30.3195 21.2294 31.1385C21.1506 31.228 21.0569 31.3031 20.9524 31.3605C20.8456 31.4167 20.7229 31.4349 20.6045 31.4122C20.486 31.3895 20.3788 31.3272 20.3004 31.2355C20.2119 31.1541 20.155 31.044 20.1398 30.9247C20.1246 30.8054 20.1521 30.6845 20.2174 30.5835C20.3228 30.4245 20.4485 30.28 20.5914 30.1535C21.7284 29.0025 22.8524 27.8375 23.9914 26.6995C24.9914 25.6995 26.0164 24.6995 27.0424 23.7175C27.2444 23.5506 27.4576 23.3976 27.6804 23.2595H27.6654Z" fill="#C7A386"/>
<path d="M14.8505 4.43853H18.9975C19.6075 4.43853 19.8975 4.63253 19.9125 5.00753C19.9275 5.38253 19.6355 5.59053 19.0245 5.59053H10.5925C10.4486 5.59504 10.3046 5.58566 10.1625 5.56253C10.0306 5.55353 9.90752 5.4934 9.81936 5.39497C9.7312 5.29653 9.68495 5.16756 9.69047 5.03553C9.68236 4.90286 9.72302 4.7718 9.80479 4.66701C9.88656 4.56222 10.0038 4.49092 10.1345 4.46653C10.3225 4.43611 10.5134 4.42672 10.7035 4.43853H14.8505Z" fill="#C7A386"/>
<path d="M14.8036 46.5475H15.5806C15.6519 46.541 15.7238 46.5488 15.7921 46.5706C15.8603 46.5923 15.9235 46.6276 15.9779 46.6742C16.0322 46.7208 16.0767 46.7779 16.1086 46.842C16.1405 46.9062 16.1592 46.976 16.1636 47.0475C16.1726 47.1196 16.1672 47.1927 16.1476 47.2626C16.128 47.3325 16.0946 47.3978 16.0494 47.4546C16.0042 47.5114 15.9482 47.5586 15.8845 47.5935C15.8208 47.6283 15.7508 47.6501 15.6786 47.6575C15.0643 47.6992 14.4479 47.6992 13.8336 47.6575C13.7679 47.6506 13.7042 47.6307 13.6462 47.5989C13.5882 47.5672 13.5371 47.5243 13.4958 47.4727C13.4545 47.4211 13.4239 47.3618 13.4056 47.2982C13.3874 47.2347 13.3819 47.1682 13.3896 47.1025C13.3896 46.8115 13.5976 46.6175 13.9446 46.5615H14.7906L14.8036 46.5475Z" fill="#C7A386"/>
</g>
</g>
</g>
<defs>
<clipPath id="clip0_6_2033">
<rect width="37.91" height="51.95" fill="white" transform="translate(0.689941)"/>
</clipPath>
<clipPath id="clip1_6_2033">
<rect width="37.91" height="51.95" fill="white" transform="translate(0.689941)"/>
</clipPath>
<clipPath id="clip2_6_2033">
<rect width="37.913" height="51.963" fill="white" transform="translate(0.688477 -0.00646973)"/>
</clipPath>
</defs>
</svg>
