<svg width="66" height="49" viewBox="0 0 66 49" fill="none" xmlns="http://www.w3.org/2000/svg">
<g clip-path="url(#clip0_6_2066)">
<g clip-path="url(#clip1_6_2066)">
<g clip-path="url(#clip2_6_2066)">
<path d="M0.110352 48.8215V0.180481H65.1104V48.8245L0.110352 48.8215Z" stroke="#C7A386" stroke-width="1.5" stroke-miterlimit="10" stroke-linecap="round" stroke-linejoin="round"/>
<path d="M32.6104 20.0725L32.6154 0.17749" stroke="#C7A386" stroke-width="1.5" stroke-miterlimit="10" stroke-linecap="round" stroke-linejoin="round"/>
<path d="M32.6103 28.9265C35.0492 28.9265 37.0263 26.9445 37.0263 24.4995C37.0263 22.0545 35.0492 20.0725 32.6103 20.0725C30.1714 20.0725 28.1943 22.0545 28.1943 24.4995C28.1943 26.9445 30.1714 28.9265 32.6103 28.9265Z" stroke="#C7A386" stroke-width="1.5" stroke-miterlimit="10" stroke-linecap="round" stroke-linejoin="round"/>
<path d="M15.5952 28.9265C18.0341 28.9265 20.0112 26.9445 20.0112 24.4995C20.0112 22.0545 18.0341 20.0725 15.5952 20.0725C13.1563 20.0725 11.1792 22.0545 11.1792 24.4995C11.1792 26.9445 13.1563 28.9265 15.5952 28.9265Z" stroke="#C7A386" stroke-width="1.5" stroke-miterlimit="10" stroke-linecap="round" stroke-linejoin="round"/>
<path d="M0.110352 6.56952C10.2014 6.56952 20.0104 14.4085 20.0104 24.4995C20.0104 34.5905 10.2014 43.1125 0.110352 43.1125" stroke="#C7A386" stroke-width="1.5" stroke-miterlimit="10" stroke-linecap="round" stroke-linejoin="round"/>
<path d="M32.6104 28.9265V48.8175" stroke="#C7A386" stroke-width="1.5" stroke-miterlimit="10" stroke-linecap="round" stroke-linejoin="round"/>
<path d="M49.6255 29.2685C52.0644 29.2685 54.0415 27.2865 54.0415 24.8415C54.0415 22.3965 52.0644 20.4145 49.6255 20.4145C47.1866 20.4145 45.2095 22.3965 45.2095 24.8415C45.2095 27.2865 47.1866 29.2685 49.6255 29.2685Z" stroke="#C7A386" stroke-width="1.5" stroke-miterlimit="10" stroke-linecap="round" stroke-linejoin="round"/>
<path d="M65.1104 42.7725C55.0194 42.7725 45.2104 34.9335 45.2104 24.8425C45.2104 14.7515 55.0194 6.22852 65.1104 6.22852" stroke="#C7A386" stroke-width="1.5" stroke-miterlimit="10" stroke-linecap="round" stroke-linejoin="round"/>
<path d="M15.5954 20.0725H0.110352" stroke="#C7A386" stroke-width="1.5" stroke-miterlimit="10" stroke-linecap="round" stroke-linejoin="round"/>
<path d="M15.5954 28.9265H0.110352" stroke="#C7A386" stroke-width="1.5" stroke-miterlimit="10" stroke-linecap="round" stroke-linejoin="round"/>
<path d="M49.6255 20.4145H65.1105" stroke="#C7A386" stroke-width="1.5" stroke-miterlimit="10" stroke-linecap="round" stroke-linejoin="round"/>
<path d="M49.6255 29.2685H65.1105" stroke="#C7A386" stroke-width="1.5" stroke-miterlimit="10" stroke-linecap="round" stroke-linejoin="round"/>
</g>
</g>
</g>
<defs>
<clipPath id="clip0_6_2066">
<rect width="65" height="49" fill="white" transform="translate(0.110352)"/>
</clipPath>
<clipPath id="clip1_6_2066">
<rect width="65" height="49" fill="white" transform="translate(0.110352)"/>
</clipPath>
<clipPath id="clip2_6_2066">
<rect width="66.5" height="50.145" fill="white" transform="translate(-0.639648 -0.57251)"/>
</clipPath>
</defs>
</svg>
