<svg width="64" height="50" viewBox="0 0 64 50" fill="none" xmlns="http://www.w3.org/2000/svg">
<g clip-path="url(#clip0_473_37)">
<path d="M55.491 17.9476H63.1825C63.6961 17.9476 64.1845 18.7599 63.9305 19.3047C63.9009 19.3685 63.4679 19.8014 63.4328 19.8014H39.2956L39.108 19.9868V34.1978C41.5494 37.1727 45.7377 37.7199 48.7395 35.1882C49.1627 34.8314 49.9334 33.7522 50.3296 33.6665C51.3051 33.4555 51.748 34.5486 52.424 35.1281C55.1773 37.4883 58.9031 37.2748 61.5561 34.877C62.1226 34.365 62.4179 33.374 63.407 33.6677C63.805 33.7856 64.059 34.3906 63.9741 34.787C63.8874 35.1919 62.9026 36.1762 62.5538 36.4802C59.0132 39.5676 53.9176 39.3383 50.6593 35.9981C50.0921 36.3714 49.6529 36.8766 49.079 37.253C45.5064 39.5943 41.1483 38.9115 38.1705 35.9914C34.8329 39.5432 29.1301 39.5293 25.7894 35.9914C22.3681 39.4776 16.7822 39.5913 13.3911 35.9987C12.7397 36.4595 12.2033 37.0371 11.5076 37.4481C8.16996 39.4192 4.12371 38.9346 1.27386 36.3635C0.65075 35.8011 -0.398642 34.8636 0.15804 34.0179C0.979838 32.7703 1.83055 34.3644 2.33494 34.8204C5.40069 37.5886 9.63394 37.4651 12.3195 34.2957L12.3565 27.2887C12.362 26.153 14.0413 25.9566 14.2129 27.0382L14.2461 34.1723C14.884 34.9779 15.7021 35.6108 16.5965 36.113V10.9656C16.5965 5.867 22.5213 2.64529 26.9791 5.03163C28.5433 5.86943 30.6033 8.27461 30.6033 10.1004V17.947H32.9795V10.1004C32.9795 7.97609 30.9195 4.91429 29.2169 3.68494C22.7926 -0.952152 14.6742 3.47397 14.2147 11.0835C13.9638 15.2372 14.4159 19.6336 14.2166 23.8135C13.9441 24.8586 12.3442 24.4342 12.3442 23.5697V19.8008H0.651365C-0.085547 19.8008 -0.176585 17.947 0.901718 17.947H12.3448C12.5127 13.7732 11.662 9.42006 13.8241 5.63049C18.3908 -2.37423 30.1082 -1.64404 33.9182 6.57591C37.7079 -1.56865 49.258 -2.39247 53.9182 5.47606C54.5093 6.47437 55.4916 8.85949 55.4916 9.97636V17.947L55.491 17.9476ZM53.6155 17.9476V10.2244C53.6155 6.91638 50.2035 3.26604 47.1383 2.28962C41.625 0.534369 34.8563 4.58841 34.8563 10.4713V36.113C35.4345 35.8631 37.1211 34.7541 37.2294 34.1948L37.2275 10.9607C37.8156 3.07878 48.4645 1.75277 50.869 8.85949C51.1981 9.83166 51.9092 13.4753 50.0804 13.1063C49.0532 12.8989 49.4315 11.4562 49.3608 10.7199C48.9283 6.21537 43.3148 4.36953 40.361 7.87821C39.8547 8.4795 39.1073 9.95508 39.1073 10.7175V17.9464H49.3626V15.6604C49.3626 15.3704 49.9734 14.974 50.3007 14.974C50.6279 14.974 51.2387 15.3698 51.2387 15.6604V17.9464H53.6149L53.6155 17.9476ZM28.7278 17.9476V10.3478C28.7278 9.42674 27.5856 7.71709 26.8413 7.14559C23.5295 4.60239 18.4732 6.91638 18.4732 11.089V17.947H28.7284L28.7278 17.9476ZM32.9801 19.8014H18.6608L18.4732 19.9868V24.312L18.6608 24.4975H32.9801V19.8014ZM32.9801 26.3506H18.4732V28.76L18.6608 28.9455H32.9801V26.3506ZM32.9801 30.7992H18.4732V36.7307C20.3512 36.9563 22.1682 36.552 23.6605 35.3688C24.4238 34.7639 25.2383 33.1551 26.2969 33.7589C26.5355 33.8951 27.1734 34.8028 27.5437 35.1208C29.0188 36.3854 31.0548 37.0085 32.9801 36.7307V30.7992Z" fill="#C7A386"/>
<path d="M31.5673 45.0371C32.6653 44.7142 33.0221 45.8104 33.7289 46.4336C36.2828 48.6837 39.9662 48.6856 42.5503 46.4968C43.0657 46.0603 43.6796 45.0462 44.3003 45.0042C45.1258 44.9483 45.8559 46.1709 46.4852 46.6804C49.0644 48.7695 52.7194 48.5445 55.1743 46.3661C55.8221 45.7916 56.3572 44.4862 57.4171 45.1471C58.6879 45.9399 56.2121 47.9833 55.5323 48.4497C51.964 50.898 47.4558 50.3527 44.4233 47.3626C41.0045 50.8062 35.4137 50.898 32.025 47.3675C31.4228 47.8915 28.883 50.0943 28.6092 48.2758C28.4579 47.2726 29.5676 47.0173 30.2301 46.433C30.5561 46.1454 31.3213 45.1094 31.5673 45.0371Z" fill="#C7A386"/>
<path d="M26.4416 48.3816C26.978 48.913 26.6686 49.8632 25.92 49.9599C23.6035 50.259 21.1867 48.8418 19.5344 47.3796C16.4835 50.3448 11.9919 50.8974 8.42664 48.4497C7.76354 47.9943 5.11053 45.7898 6.62126 45.1021C7.71556 44.6042 8.11416 45.7709 8.78464 46.3655C11.5096 48.7835 15.268 48.6959 17.9597 46.295C18.5404 45.777 18.8086 44.8699 19.7768 45.0164C20.264 45.09 21.0046 46.1704 21.4727 46.5564C22.3904 47.3128 23.6219 47.8697 24.8017 48.0867C25.2827 48.1749 26.0301 47.9736 26.4416 48.3816Z" fill="#C7A386"/>
</g>
<defs>
<clipPath id="clip0_473_37">
<rect width="64" height="50" fill="white"/>
</clipPath>
</defs>
</svg>
